<svg xmlns="http://www.w3.org/2000/svg" viewBox="0 0 39.67 48.99"><defs><style>.cls-1{fill:none;stroke:#37003c;stroke-miterlimit:10;}.cls-2{fill:#37003c;}</style></defs><title>Fichier 1@5xle</title><g id="Calque_2" data-name="Calque 2"><g id="Calque_1-2" data-name="Calque 1"><path class="cls-1" d="M3.65.5H36a3.15,3.15,0,0,1,3.15,3.15V45.34A3.15,3.15,0,0,1,36,48.49H3.65A3.15,3.15,0,0,1,.5,45.34V3.65A3.15,3.15,0,0,1,3.65.5Z"/><path class="cls-2" d="M32.87,11.08a2.14,2.14,0,0,1,3.65-1.52V5a1.88,1.88,0,0,0-1.89-1.88H5A1.88,1.88,0,0,0,3.15,5V24.18A1.89,1.89,0,0,0,5,26.07h29.6a1.89,1.89,0,0,0,1.89-1.89V12.6a2.14,2.14,0,0,1-3.65-1.52Zm-3.65,4.79-2,1.63c-.76.55-1.34.15-1.64-.63-2.28,0-5-.07-5.41-.75a29.88,29.88,0,0,1-5-.42l-.06.17h-.5V17.5l-.08,0c.41,6,0,5.14-7,5.58a15.53,15.53,0,0,0-1.58,1.32c-.26.13-.63.13-.63-.25.12-.76-.13-1,1.13-2.52.48-1.09,1.2-1,1.81-.22,1.46-.69,3-1.13,3.73-.91a6.26,6.26,0,0,1-.64-1.89c-.64.42-1.87-4.66-1.25-4.79-.37.25-.88-.88.25-5.16a4.24,4.24,0,0,0,1.14-.51,10.52,10.52,0,0,1-2.21.38c-.94,1.06-1.95,1.79-1.95,2,0,.5-.25.63-.5.88-.51.63-1.64.38-1.14-.13a1.84,1.84,0,0,0,.38-.5c-.88.5-1,.12-.75,0a2.58,2.58,0,0,0,.88-.76c.38-.5.25-.12.63-.63,1.13-1.85,1.26-2.35,2-2.61l-.07-.28c4-.87,4-.88,5.6.2.64-1.86,3.59-2.13,3.59.68,0,.63-.63.5-.75.75s-.38.63-.51.76-.25,0-.5.13c-.68.38-1,.39-1.14,0a18,18,0,0,1-.23,2.81c1.29.11,1.68.23,1.63.43a11.07,11.07,0,0,1,3.52,1.06c.24-.24,1.15.2,6.32,2.25a15.89,15.89,0,0,0,2.49-.24C29.72,15.11,29.72,15.49,29.22,15.87Z"/><path class="cls-2" d="M26.2,31.11V29.85c0-2-1.52-2-2.27-2H21V33.5h3C26.07,33.5,26.2,32.12,26.2,31.11Zm-3.66,1v-2.9h1.51c.26,0,.63,0,.63.88v1c0,.38,0,1-.88,1Z"/><polygon class="cls-2" points="31.11 32.24 28.46 32.24 28.46 31.23 30.86 31.23 30.86 30.1 28.46 30.1 28.46 29.09 31.11 29.09 31.11 27.83 26.95 27.83 26.95 33.5 31.11 33.5 31.11 32.24"/><path class="cls-2" d="M34.38,32.24c-.88,0-1,0-1-.63H31.86c0,.88,0,2,2.52,2s2.4-1.39,2.4-1.89,0-1.64-1.89-1.64c-.38,0-1.51,0-1.51-.5s.25-.51.88-.51.88,0,.88.51h1.38c0-1.77-.5-1.77-2.39-1.77s-2.27.51-2.27,1.77c0,.37,0,1.63,2,1.63.38,0,1.38,0,1.38.51S35,32.24,34.38,32.24Z"/><path class="cls-2" d="M34,34.63H29.47L26.2,45.72h3l.54-1.89h4l.54,1.89h3Zm-3.64,7.06,1.37-4.79,1.37,4.79Z"/><path class="cls-2" d="M8.06,32.24v-.63a.89.89,0,0,0-.88-.88H6.8a1.33,1.33,0,0,0,1.26-1.39v-.12a1.45,1.45,0,0,0-1.51-1.39H3.27V33.5h3C7.3,33.5,8.06,33,8.06,32.24ZM4.78,29H6.17a.38.38,0,0,1,.38.37v.32a.38.38,0,0,1-.38.38H4.78Zm0,3.27V31.17H6.17a.38.38,0,0,1,.38.38v.31a.38.38,0,0,1-.38.38Z"/><path class="cls-2" d="M13.73,31.61V27.83H12.21v3.66c0,.5,0,.75-.75.75h-.38c-.76,0-.76-.25-.76-.75V27.83H8.81v3.78c0,1,0,2,2.46,2S13.73,32.62,13.73,31.61Z"/><rect class="cls-2" x="11.58" y="34.63" width="3.02" height="11.08"/><polygon class="cls-2" points="6.17 34.63 3.27 34.63 3.27 45.72 10.32 45.72 10.32 43.07 6.17 43.07 6.17 34.63"/><path class="cls-2" d="M21,39.55v2h2c-.06,1.64-.36,1.89-2,1.89-2,0-2-.38-2-3.27s0-3,2-3c1.37,0,1.8.07,1.95,1h2.94c-.12-2.75-.81-3.53-4.76-3.53-4.79,0-5.29,1.64-5.29,5.55s0,5.67,5.29,5.67c4.78,0,4.78-1.26,4.78-5.67v-.63Z"/><polygon class="cls-2" points="16.12 29.22 17.76 33.5 20.28 33.5 20.28 27.83 18.76 27.83 18.76 32.12 17.13 27.83 14.61 27.83 14.61 33.5 16.12 33.5 16.12 29.22"/></g></g></svg>