<svg xmlns="http://www.w3.org/2000/svg" viewBox="0 0 34.11 48"><defs><style>.cls-1{fill:#37003c;}</style></defs><title>Fichier 2@5xle</title><g id="Calque_2" data-name="Calque 2"><g id="Calque_1-2" data-name="Calque 1"><path class="cls-1" d="M15.3,0h.11a.36.36,0,0,1,.13.21c.42,2.24.84,4.49,1.25,6.73a.19.19,0,0,1-.15.26,8.36,8.36,0,0,0-2.43.85,7.93,7.93,0,0,0-3,3,.25.25,0,0,1-.21.17A1.81,1.81,0,0,1,10.6,11L4.91,7.7a.22.22,0,0,1-.14-.22A3,3,0,0,1,5,7.09a15.17,15.17,0,0,1,6.23-5.73A15,15,0,0,1,15.3,0Z"/><path class="cls-1" d="M19.12,1.7A15.18,15.18,0,0,1,29.36,5.32a1.81,1.81,0,0,1,.21.18.23.23,0,0,1-.05.27L25,10.94c0,.05-.1.11-.17.1s-.16-.07-.23-.12a7.79,7.79,0,0,0-6.26-1.81c-.09,0-.19,0-.26,0A.24.24,0,0,1,18,8.91l-1-6.48c0-.13,0-.25,0-.38a.18.18,0,0,1,.16-.18A14,14,0,0,1,19.12,1.7Z"/><path class="cls-1" d="M2.24,7.66a.21.21,0,0,1,.23,0l6.07,3.25a.21.21,0,0,1,.05.33,7.88,7.88,0,0,0-.42,6.54c0,.09.09.18,0,.27s-.16.12-.25.16l-6.3,2.42a.23.23,0,0,1-.27,0,3.75,3.75,0,0,1-.16-.43A15.18,15.18,0,0,1,1,10.61,15.42,15.42,0,0,1,2.13,7.8s.05-.11.11-.14Z"/><path class="cls-1" d="M29.07,8a.2.2,0,0,1,.24,0,15.11,15.11,0,0,1,3.93,6,15.38,15.38,0,0,1,.87,4.7v.82a3.13,3.13,0,0,1,0,.43c0,.1-.15.13-.25.12L27,19.83c-.14,0-.21-.14-.19-.27a7.81,7.81,0,0,0-2.41-6.07.58.58,0,0,1-.17-.21.3.3,0,0,1,.1-.22l4.54-4.78A1.41,1.41,0,0,1,29.07,8Z"/><path class="cls-1" d="M16,11.71a5.72,5.72,0,1,1-3.07,10A5.72,5.72,0,0,1,16,11.71m-3.64,2.74a3.86,3.86,0,0,1,.66-.37,3.42,3.42,0,0,0-.33,1.78c.5.24,1,.45,1.5.7l-1.61-.32a3.35,3.35,0,0,0-.8,1.66,3.67,3.67,0,0,1-.31-.67,5.21,5.21,0,0,0,1.1,3.37,4.34,4.34,0,0,1-.14-.7,3.49,3.49,0,0,0,1.6.87c.38-.4.74-.83,1.13-1.22-.26.48-.54,1-.81,1.44a3.41,3.41,0,0,0,1.34,1.27,5.9,5.9,0,0,1-.72.09,5.34,5.34,0,0,0,3.53,0,5.51,5.51,0,0,1-.71-.09A3.45,3.45,0,0,0,19.13,21c-.27-.48-.55-1-.81-1.44.39.39.75.81,1.13,1.22a3.43,3.43,0,0,0,1.61-.87,5.78,5.78,0,0,1-.14.7A5.27,5.27,0,0,0,22,17.23a5,5,0,0,1-.31.66,3.4,3.4,0,0,0-.8-1.65l-1.61.32c.49-.25,1-.46,1.49-.69a3.25,3.25,0,0,0-.33-1.79,3.29,3.29,0,0,1,.66.37,5.31,5.31,0,0,0-2.93-2.13,4.7,4.7,0,0,1,.57.51v0l0,0a3.3,3.3,0,0,0-1.78.24c-.06.54-.12,1.08-.19,1.62-.08-.53-.12-1.08-.2-1.62a3.39,3.39,0,0,0-1.81-.24,3.45,3.45,0,0,1,.56-.52,5.29,5.29,0,0,0-2.93,2.13Z"/><path class="cls-1" d="M16.75,15l2.31,1.68c-.29.91-.59,1.81-.88,2.72H15.32l-.89-2.72L16.75,15Z"/><path class="cls-1" d="M18.47,37a1.15,1.15,0,0,1,.9.17,1.12,1.12,0,0,1,.47,1,1.14,1.14,0,0,1-.85,1,1.1,1.1,0,0,1-1.11-.33A1.14,1.14,0,0,1,18.47,37Z"/><path class="cls-1" d="M.11,38.15h2v5.94H4.53v1.75H.11V38.15Z"/><path class="cls-1" d="M12.54,38.15h2c0,2,0,4,0,5.94.8,0,1.61,0,2.41,0v1.74H12.54V38.15Z"/><path class="cls-1" d="M6.16,40.11a2.77,2.77,0,0,1,1.73-.55A2.16,2.16,0,0,1,9,39.82a3.9,3.9,0,0,1,.65.48v-.62h1.84v6.15H9.57v-.59A2.66,2.66,0,0,1,7.68,46a2.78,2.78,0,0,1-1.79-.64A2.87,2.87,0,0,1,5,43.75a4.2,4.2,0,0,1,0-1.58,3.33,3.33,0,0,1,1.25-2.06m1.67,1.22a1.36,1.36,0,0,0-.77.49,1.65,1.65,0,0,0-.15,1.7,1.32,1.32,0,0,0,.92.75,1.51,1.51,0,0,0,1.63-.7,1.59,1.59,0,0,0-.37-2,1.49,1.49,0,0,0-1.26-.25Z"/><path class="cls-1" d="M21.85,39.89a2.62,2.62,0,0,1,1.92-.26,2.43,2.43,0,0,1,1.18.73v-.68h1.78v4.7a10.78,10.78,0,0,1,0,1.27,2.66,2.66,0,0,1-.9,1.63,3.4,3.4,0,0,1-2,.72H23.4a3.6,3.6,0,0,1-1.76-.51,2.32,2.32,0,0,1-1.09-1.64h2.09a1.19,1.19,0,0,0,.32.35,1.23,1.23,0,0,0,.75.15,1.27,1.27,0,0,0,1-.46,1.51,1.51,0,0,0,.14-1,3,3,0,0,1-1.29.65,2.45,2.45,0,0,1-1.6-.2,2.72,2.72,0,0,1-1.36-1.63,3.7,3.7,0,0,1,0-2.37,2.85,2.85,0,0,1,1.2-1.49m1.31,1.32a1.24,1.24,0,0,0-.83.85,1.74,1.74,0,0,0,.28,1.62,1.36,1.36,0,0,0,1.52.27,1.38,1.38,0,0,0,.69-.68,1.68,1.68,0,0,0,0-1.32,1.21,1.21,0,0,0-.7-.7A1.61,1.61,0,0,0,23.16,41.21Z"/><path class="cls-1" d="M28.87,40.08a2.79,2.79,0,0,1,2.26-.45,2.7,2.7,0,0,1,1.14.67v-.62h1.84v6.15H32.24v-.59a2.56,2.56,0,0,1-.75.51,2.9,2.9,0,0,1-2.31,0,2.69,2.69,0,0,1-1.42-1.54,4,4,0,0,1-.17-2.08,3.28,3.28,0,0,1,1.28-2m1.6,1.25a1.41,1.41,0,0,0-.68.41,1.65,1.65,0,0,0-.23,1.73,1.35,1.35,0,0,0,.8.77,1.55,1.55,0,0,0,1.72-.58,1.59,1.59,0,0,0-.29-2.06,1.52,1.52,0,0,0-1.32-.27Z"/><path class="cls-1" d="M17.78,39.68h1.86v6.15H17.78V39.68Z"/><path class="cls-1" d="M6.47,19.78a.22.22,0,0,1,.31.15,7.8,7.8,0,0,0,4.93,4.41.22.22,0,0,1,.18.29c-.68,2.19-1.37,4.38-2.05,6.57a.22.22,0,0,1-.3.15,15,15,0,0,1-4.79-2.48A15.12,15.12,0,0,1,0,22.74v-.1a.34.34,0,0,1,.18-.15l6.29-2.71Z"/><path class="cls-1" d="M24.71,20.65a.42.42,0,0,1,.16,0l6.82.53a.2.2,0,0,1,.2.24A15.2,15.2,0,0,1,25.66,32.6a.2.2,0,0,1-.3-.05l-3.92-5.34a1.15,1.15,0,0,1-.21-.33c0-.13.1-.19.18-.25A7.84,7.84,0,0,0,24.57,21c0-.11,0-.27.14-.31Z"/><path class="cls-1" d="M19.05,25.58a.2.2,0,0,1,.25.12l3.84,5.7c.11.14,0,.3-.15.35a15.19,15.19,0,0,1-10,2.5,15.7,15.7,0,0,1-2.62-.49.21.21,0,0,1-.14-.27c.61-2.21,1.23-4.42,1.84-6.64a.21.21,0,0,1,.3-.14,7.88,7.88,0,0,0,5.18-.33,8.29,8.29,0,0,0,1.46-.8Z"/></g></g></svg>