<svg xmlns="http://www.w3.org/2000/svg" width="68" height="104" viewBox="0 0 68 104">
    <path fill="#0F7" fill-rule="evenodd" d="M22.327 11.63C26.349 9.412 31 8.149 35.954 8.149c2.579 0 5.082.344 7.455.986.22-2.215.72-4.97 1.765-6.968-2.412 1.802-3.85 3.76-4.038 4.007-.056-.502-.278-3.839-.44-6.173-.972 1.025-4.729 5.082-5.385 5.749-.538-.802-3.683-5.74-3.683-5.74S29.89 4.91 29.388 6.41c-1.233-.818-4.977-3.34-6.59-4.426.313 2.075.859 5.415 1.006 6.109-.324-.237-2.102-1.79-4.87-3.02 1.517 1.757 2.662 4.418 3.393 6.558zm25.48 32.814c.105-2.073-.456-3.828-.456-3.828-.85.959-2.956 1.876-4.153 2.13-.607-1.13-1.806-3.295-1.806-3.295 2.177-.07 5.746-3.046 5.746-3.046l2.648-.063c1.16 1.329 1.433 2.751 1.433 2.751-.58 2.864-2.22 4.681-3.413 5.351zm-7.868-7.664c-1.52-2.757-2.906-5.31-2.906-5.31s4.107-3.31 7.498-3.808c1.688 1.271 3.27 1.763 3.27 1.763l.005 3.438h.001c-1.268 1.008-5.2 4.278-7.868 3.917zm12.366-8.98c1.23 2.823 1.487 6.259.149 8.595-.705-1.56-1.647-2.417-2.602-3.45l-.015-3.45s1.132-.607 2.468-1.695zm2.365 17.033l2.18 2.343c3.366-9.678.75-17.377-4.052-24.03l-.208 1.57-2.084-2.19s.385-.184.773-.636c.024-.18-.13-1.26-.995-1.964-.841.205-1.459.67-1.788 1.126-1.15-1.002-2.437-1.386-2.437-1.386.229.17 1.582 1.997 1.735 2.521 1.24.999 2.843 2.167 3.955 3.568-.878-.988-5.152-1.228-7.118-.185 0 0-1.93-2.202-3.708-3.74-.37-1.343.854-2.45.854-2.45s-1.235-.036-2.418 1.083c-1.78-1.279-4.03-1.893-4.03-1.893-2.493.375-4.2 2.075-4.2 2.075.608.37 1.382.813 2.046 1.066 1.387.524 2.653.361 3.502.357.68-.005 1.644.19 1.644.19s1.68 1.215 4.11 3.936c-3.695-1.438-7.62.208-10.35-1.118-3.184-1.548-2.963-4.017-2.963-4.017s-2.167-.299-2.185-.337c0 0 1.587-2.037 4.032-2.766l-1.235-1.02c1.418-1.195 4.026-2.712 8.082-3.276 0 0 1.814.651 5.509 3.238.638-.834.79-2.569.79-2.569 1.855.648 5.74 3.36 7.287 5.04-.815-1.902-1.433-3.103-1.629-5.105-.954-.909-3.231-2.794-8.004-3.922.735 1.553.674 2.838.674 2.838-.878-1.09-2.76-2.843-4.04-3.342a28.338 28.338 0 0 0-2.447-.105 27.349 27.349 0 0 0-12.243 2.863h.003c1.942.107 3.239 1.69 3.682 2.949-1.488-1.129-3.816-1.628-5.2-.173-1.385 1.443-1.226 4.23.1 6.483-3.121-1.533-3.106-5.562-2.04-7.194l-.006.003c-3.548 2.493-6.448 5.814-8.39 9.666h.002l2.859.444c-3.247 3.6-5.488 10.008-5.488 13.03l4.577-1.377c-.82 2.647-1.067 11.637 1.683 16.117 0 0 3.602-2.396 7.673-8.512 1.74 5.482.929 10.06.015 14.579 7.352 4.034 15.91 1.767 20.897-1.728l.897 3.418c5.876-3.752 9.074-9.132 9.697-15.468zm-27.356 51.71c-1.53 0-2.677-1.18-2.677-2.663 0-1.56 1.147-2.7 2.677-2.7 1.493 0 2.64 1.14 2.64 2.7 0 1.484-1.147 2.663-2.64 2.663zm2.602-6.43c-.613-.952-1.644-1.484-3.175-1.484-2.716 0-5.088 2.397-5.088 5.25 0 2.892 2.372 5.365 5.088 5.365 1.416 0 2.562-.647 3.175-1.56l.306 1.293h2.487V88.781h-2.487l-.306 1.331zm9.488 6.43a2.655 2.655 0 0 1-2.678-2.663c0-1.56 1.187-2.7 2.678-2.7 1.492 0 2.677 1.14 2.677 2.7a2.654 2.654 0 0 1-2.677 2.663zm2.524-6.468c-.612-.876-1.683-1.446-2.868-1.446-2.908 0-5.28 2.282-5.28 5.25 0 3.006 2.296 5.365 5.203 5.365 1.11 0 2.104-.341 2.945-1.218v.724c0 1.521-.917 2.55-3.022 2.55-1.339 0-2.371-.648-3.136-1.37l-1.57 2.168c1.225 1.18 2.755 1.902 4.898 1.902 1.568 0 2.87-.531 3.825-1.254 1.263-.99 1.798-2.321 1.798-4.224v-9.74h-2.487l-.306 1.293zm-6.388-13.85v6.012h2.831v-5.973c0-1.142.574-1.827 1.683-1.827.957 0 1.568.685 1.568 1.789h.002v6.012h2.831v-6.506c0-2.321-1.492-3.958-3.672-3.958-.765 0-1.99.115-2.985 1.523l-.076.114-.077-.114c-.688-1.029-1.683-1.523-2.87-1.523-1.912 0-2.524 1.598-2.524 1.598l-.307-1.332h-2.487v10.197h2.831v-5.973c0-1.142.574-1.827 1.684-1.827.956 0 1.568.685 1.568 1.789zm10.33 6.011h2.83V72.04h-2.83v10.196zm1.452-11.565c.995 0 1.76-.761 1.76-1.712 0-.99-.765-1.75-1.76-1.75-.994 0-1.76.76-1.76 1.75 0 .95.766 1.712 1.76 1.712zm12.74 22.106c.23-1.104 1.225-1.789 2.41-1.789 1.148 0 2.104.723 2.335 1.789h-4.745zM67.6 93.84c0-3.463-2.564-5.327-5.05-5.327-3.33 0-5.434 2.55-5.434 5.404 0 3.158 2.333 5.326 5.51 5.326 1.721 0 3.327-.685 4.437-1.941l-1.72-1.75c-.728.76-1.608 1.18-2.756 1.18-1.262 0-2.295-.762-2.562-1.903h7.497c.078-.38.078-.723.078-.989zm-14.309.19c0 1.637-.919 2.511-2.18 2.511-1.377 0-2.181-.76-2.181-2.51V88.78H46.1v5.441c0 3.804 2.753 5.022 5.01 5.022 2.22 0 5.012-1.218 5.012-5.022v-5.441h-2.83v5.25zm-32.48-17.995c.229-1.104 1.224-1.789 2.41-1.789 1.148 0 2.104.723 2.333 1.789h-4.743zm7.537 1.065c0-3.463-2.564-5.327-5.05-5.327-3.329 0-5.433 2.55-5.433 5.403 0 3.158 2.335 5.327 5.51 5.327 1.721 0 3.328-.685 4.437-1.94l-1.72-1.751c-.728.762-1.608 1.18-2.756 1.18-1.261 0-2.295-.762-2.562-1.903h7.498c.076-.38.076-.723.076-.99zM3.022 69.605h1.76c1.53 0 2.64.799 2.64 2.322 0 1.522-1.11 2.358-2.64 2.358h-1.76v-4.68zm0 7.572h1.912c3.252 0 5.625-1.94 5.625-5.25 0-3.273-2.411-5.175-5.625-5.175H0v15.486h3.022v-5.061zm61.211-.077c0-1.636.956-2.473 2.333-2.473.345 0 .65.039.995.114v-2.7a2.93 2.93 0 0 0-.804-.114c-1.224 0-2.142.646-2.602 1.597l-.306-1.484h-2.447v10.197h2.831V77.1zM3.022 83.873H0v15.105h9.602v-2.854h-6.58V83.873zm54.476-7.837h-4.743c.23-1.104 1.224-1.789 2.41-1.789 1.148 0 2.105.723 2.333 1.789zm-7.688 1.141c0 3.158 2.334 5.327 5.509 5.327 1.721 0 3.327-.685 4.437-1.94l-1.72-1.751c-.728.762-1.608 1.18-2.756 1.18-1.262 0-2.294-.762-2.563-1.903h7.499c.077-.38.077-.723.077-.99 0-3.462-2.564-5.326-5.05-5.326-3.33 0-5.433 2.55-5.433 5.403zm-36.65 15.6c.23-1.104 1.223-1.789 2.41-1.789 1.147 0 2.104.723 2.333 1.789h-4.744zm2.485-4.263c-3.328 0-5.431 2.55-5.431 5.404 0 3.158 2.334 5.326 5.51 5.326 1.72 0 3.327-.685 4.436-1.941l-1.72-1.75c-.73.76-1.609 1.18-2.756 1.18-1.261 0-2.295-.762-2.564-1.903h7.5c.076-.38.076-.723.076-.989 0-3.463-2.564-5.327-5.05-5.327zM14.346 77.1c0-1.636.956-2.473 2.334-2.473.345 0 .649.039.994.114v-2.7a2.926 2.926 0 0 0-.803-.114c-1.225 0-2.143.646-2.601 1.597l-.307-1.484h-2.448v10.197h2.831V77.1z"/>
</svg>
