<svg xmlns="http://www.w3.org/2000/svg" viewBox="0 0 31.2 48"><defs><style>.cls-1{fill:#37003c;}</style></defs><title>Fichier 2@5xle</title><g id="Calque_2" data-name="Calque 2"><g id="Calque_1-2" data-name="Calque 1"><path class="cls-1" d="M10.3,5.37A13.09,13.09,0,0,1,20,4.22,9.61,9.61,0,0,1,20.85,1,9.35,9.35,0,0,0,19,2.85c0-.23-.13-1.77-.21-2.85-.45.47-2.18,2.35-2.48,2.65C16.05,2.28,14.6,0,14.6,0l-1,3-3-2c.15,1,.4,2.49.47,2.81A10.65,10.65,0,0,0,8.74,2.34a9.49,9.49,0,0,1,1.56,3ZM22.06,20.51a5.48,5.48,0,0,0-.21-1.76,4.36,4.36,0,0,1-1.91,1c-.28-.52-.84-1.52-.84-1.52a6.51,6.51,0,0,0,2.66-1.41l1.22,0A3.11,3.11,0,0,1,23.64,18a3.71,3.71,0,0,1-1.58,2.47ZM18.43,17l-1.34-2.45a9.32,9.32,0,0,1,3.46-1.75,5.69,5.69,0,0,0,1.51.81v1.59h0C21.48,15.63,19.66,17.14,18.43,17Zm5.71-4.14a4.65,4.65,0,0,1,.07,4A5.78,5.78,0,0,0,23,15.2V13.61A8.3,8.3,0,0,0,24.14,12.83Zm1.09,7.86,1,1.08c1.55-4.46.34-8-1.87-11.09l-.1.73-1-1a1.3,1.3,0,0,0,.36-.3,1.27,1.27,0,0,0-.46-.9,1.42,1.42,0,0,0-.83.52,3.24,3.24,0,0,0-1.12-.64,5.46,5.46,0,0,1,.8,1.16,11.14,11.14,0,0,1,1.82,1.65c-.4-.46-2.37-.57-3.28-.09a20.87,20.87,0,0,0-1.71-1.73,1.25,1.25,0,0,1,.39-1.13,1.72,1.72,0,0,0-1.11.5,6.71,6.71,0,0,0-1.86-.87,3.76,3.76,0,0,0-1.94,1,6.45,6.45,0,0,0,.94.49,3.92,3.92,0,0,0,1.62.16,4.88,4.88,0,0,1,.76.09,13.54,13.54,0,0,1,1.89,1.82c-1.7-.66-3.51.09-4.77-.52a2,2,0,0,1-1.37-1.85s-1-.14-1-.16a4.08,4.08,0,0,1,1.86-1.27l-.57-.47A7.25,7.25,0,0,1,17.45,6.3,12.46,12.46,0,0,1,20,7.8a2.84,2.84,0,0,0,.37-1.19,11.83,11.83,0,0,1,3.36,2.33A7.3,7.3,0,0,1,23,6.58a7.65,7.65,0,0,0-3.69-1.81,3,3,0,0,1,.31,1.31,6.12,6.12,0,0,0-1.87-1.54c-.37,0-.75,0-1.13,0a12.74,12.74,0,0,0-5.65,1.32h0a2,2,0,0,1,1.7,1.36,1.84,1.84,0,0,0-2.4-.08,2.63,2.63,0,0,0,0,3,2.46,2.46,0,0,1-.94-3.32h0a12.17,12.17,0,0,0-3.88,4.46h0l1.32.2a11.26,11.26,0,0,0-2.53,6l2.11-.64C6,18,5.88,22.18,7.15,24.25a14.86,14.86,0,0,0,3.54-3.93,12.58,12.58,0,0,1,0,6.73,9.4,9.4,0,0,0,9.64-.8l.42,1.58A9.3,9.3,0,0,0,25.23,20.69ZM12.61,44.56a1.24,1.24,0,1,1,0-2.48,1.24,1.24,0,0,1,0,2.48Zm1.2-3a1.62,1.62,0,0,0-1.47-.69A2.44,2.44,0,0,0,10,43.33a2.47,2.47,0,0,0,2.35,2.47,1.72,1.72,0,0,0,1.47-.72l.14.6H15.1V41H14l-.14.62Zm4.38,3A1.24,1.24,0,0,1,17,43.34h0a1.24,1.24,0,1,1,1.25,1.23Zm1.16-3A1.63,1.63,0,0,0,18,40.9a2.45,2.45,0,0,0,0,4.9,1.78,1.78,0,0,0,1.36-.56v.34c0,.7-.42,1.17-1.39,1.17a2.1,2.1,0,0,1-1.45-.63l-.73,1a3.09,3.09,0,0,0,2.27.88,2.92,2.92,0,0,0,1.76-.58,2.27,2.27,0,0,0,.83-2V41H19.49Zm-3-6.39V38h1.31V35.2c0-.53.26-.85.78-.85s.72.32.72.83h0V38h1.31V35a1.68,1.68,0,0,0-1.7-1.82,1.53,1.53,0,0,0-1.37.7l0,.05,0-.05a1.49,1.49,0,0,0-1.32-.7,1.26,1.26,0,0,0-1.17.73l-.14-.61H13.6V38h1.3V35.2c0-.53.27-.85.78-.85s.72.32.72.83ZM21.17,38h1.31v-4.7H21.17Zm.67-5.33a.8.8,0,1,0-.81-.79A.79.79,0,0,0,21.84,32.62Zm5.88,10.2a1.14,1.14,0,0,1,2.19,0Zm3.48.49a2.33,2.33,0,0,0-2.33-2.46,2.45,2.45,0,0,0-2.51,2.5A2.4,2.4,0,0,0,28.9,45.8,2.69,2.69,0,0,0,31,44.91l-.79-.81a1.68,1.68,0,0,1-1.27.54,1.18,1.18,0,0,1-1.19-.87h3.46A2,2,0,0,0,31.2,43.31Zm-6.6.09a1,1,0,0,1-1,1.16c-.64,0-1-.35-1-1.16V41h-1.3v2.52a2.16,2.16,0,0,0,2.31,2.31,2.17,2.17,0,0,0,2.31-2.31V41H24.6V43.4Zm-15-8.31a1.08,1.08,0,0,1,1.12-.82,1.05,1.05,0,0,1,1.07.82Zm3.48.49a2.33,2.33,0,0,0-2.33-2.45,2.44,2.44,0,0,0-2.5,2.49,2.4,2.4,0,0,0,2.54,2.46,2.73,2.73,0,0,0,2.05-.9l-.8-.81a1.63,1.63,0,0,1-1.27.55A1.16,1.16,0,0,1,9.59,36h3.46a2.64,2.64,0,0,0,0-.46ZM1.39,32.12h.82a1.09,1.09,0,1,1,0,2.16H1.39Zm0,3.5h.89a2.41,2.41,0,1,0,0-4.81H0V38H1.39Zm28.26,0a1,1,0,0,1,1.07-1.14,1.82,1.82,0,0,1,.46.06V33.25a1.14,1.14,0,0,0-.37,0,1.28,1.28,0,0,0-1.2.73l-.14-.68H28.34V38h1.31ZM1.39,38.71H0v7H4.43V44.36h-3Zm25.15-3.62H24.35a1.14,1.14,0,0,1,2.19,0ZM23,35.62a2.41,2.41,0,0,0,2.54,2.46,2.7,2.7,0,0,0,2-.9l-.79-.81a1.67,1.67,0,0,1-1.28.55A1.16,1.16,0,0,1,24.33,36h3.46a2,2,0,0,0,0-.46,2.33,2.33,0,0,0-2.33-2.45A2.44,2.44,0,0,0,23,35.62ZM6.07,42.82A1.09,1.09,0,0,1,7.19,42a1.06,1.06,0,0,1,1.07.83Zm1.15-2a2.45,2.45,0,0,0-2.51,2.5A2.41,2.41,0,0,0,7.26,45.8a2.69,2.69,0,0,0,2-.89l-.79-.81a1.68,1.68,0,0,1-1.27.55,1.17,1.17,0,0,1-1.18-.88H9.52a2.7,2.7,0,0,0,0-.46,2.33,2.33,0,0,0-2.33-2.46Zm-.6-5.27A1,1,0,0,1,7.7,34.44a1.82,1.82,0,0,1,.46.06V33.25a1.18,1.18,0,0,0-.37,0,1.27,1.27,0,0,0-1.2.73l-.15-.68H5.31V38H6.62Z"/></g></g></svg>