<svg xmlns="http://www.w3.org/2000/svg" viewBox="0 0 32.73 47.99"><defs><style>.cls-1{fill:#37003c;}.cls-2{fill:none;stroke:#000;stroke-miterlimit:10;stroke-width:0.01px;}</style></defs><title>Fichier 2@5xle</title><g id="Calque_2" data-name="Calque 2"><g id="Calque_1-2" data-name="Calque 1"><path class="cls-1" d="M2.47,48a3.87,3.87,0,0,1-1.38-.25,2.91,2.91,0,0,1-1-.61A.11.11,0,0,1,0,47l.71-.81s.08,0,.13,0a2.63,2.63,0,0,0,1.66.65,1.26,1.26,0,0,0,.75-.2.64.64,0,0,0,.28-.55.53.53,0,0,0-.22-.46,1.6,1.6,0,0,0-.76-.25l-.33,0c-1.33-.19-2-.82-2-1.9A1.75,1.75,0,0,1,.86,42a2.4,2.4,0,0,1,1.63-.53,3.42,3.42,0,0,1,2.15.66c.05,0,.06.08,0,.14l-.56.85a.09.09,0,0,1-.13,0,2.72,2.72,0,0,0-1.47-.48.93.93,0,0,0-.63.19.64.64,0,0,0-.21.5.55.55,0,0,0,.22.45,1.83,1.83,0,0,0,.76.24l.34.05c1.32.18,2,.82,2,1.91a1.78,1.78,0,0,1-.64,1.44A2.73,2.73,0,0,1,2.47,48Z"/><path class="cls-1" d="M5.89,47.79V41.66A.08.08,0,0,1,6,41.57h4c.07,0,.1,0,.1.09v1c0,.06,0,.09-.1.09H7.31s0,0,0,.06v1.25s0,.06,0,.06H9.58a.08.08,0,0,1,.09.09v1c0,.07,0,.1-.09.1H7.31a0,0,0,0,0,0,.05v1.31s0,.06,0,.06H10a.08.08,0,0,1,.09.09v1c0,.07,0,.1-.09.1H6c-.06,0-.09,0-.09-.1Z"/><path class="cls-1" d="M16.1,47.89H14.78a.14.14,0,0,1-.14-.1l-1.08-2.31h-.85s-.05,0-.05.06v2.25c0,.07,0,.1-.1.1H11.38c-.06,0-.09,0-.09-.1V41.66a.08.08,0,0,1,.09-.09H13.9a2.23,2.23,0,0,1,1.56.54,2,2,0,0,1,.29,2.48,1.84,1.84,0,0,1-.83.7l1.25,2.49a.08.08,0,0,1,0,.07A.08.08,0,0,1,16.1,47.89Zm-2.27-3.57a.9.9,0,0,0,.62-.21.77.77,0,0,0,.23-.58.78.78,0,0,0-.23-.57.9.9,0,0,0-.62-.21H12.71a.05.05,0,0,0-.06.06v1.46s0,0,.06,0Z"/><path class="cls-1" d="M17.14,47.79V41.66a.08.08,0,0,1,.09-.09h1.18a.08.08,0,0,1,.09.09v6.13c0,.07,0,.1-.09.1H17.23C17.17,47.89,17.14,47.86,17.14,47.79Z"/><path class="cls-1" d="M19.86,47.79V41.66a.08.08,0,0,1,.09-.09H24a.08.08,0,0,1,.09.09v1a.08.08,0,0,1-.09.09H21.28a.05.05,0,0,0-.06.06v1.25a.05.05,0,0,0,.06.06h2.26c.06,0,.1,0,.1.09v1a.09.09,0,0,1-.1.1H21.28s-.06,0-.06.05v1.31a.05.05,0,0,0,.06.06H24a.08.08,0,0,1,.09.09v1c0,.07,0,.1-.09.1H20c-.06,0-.09,0-.09-.1Z"/><path class="cls-1" d="M27,47.79l2.17-6.13a.12.12,0,0,1,.12-.09h1.17a.12.12,0,0,1,.12.09l2.14,6.13c0,.07,0,.1-.07.1h-1.2a.11.11,0,0,1-.12-.1L31,46.69H28.76l-.35,1.1a.12.12,0,0,1-.12.1H27.07c-.06,0-.08,0-.06-.1Zm2.13-2.26H30.6l-.71-2.21h0Z"/><line class="cls-2" x1="16.44" y1="39.46" x2="16.44" y2="39.18"/><line class="cls-2" x1="16.23" y1="39.34" x2="16.64" y2="39.34"/><path class="cls-1" d="M19.62,0H13.05L.48,29.43l15.94,9.91-6.27-9.91,6.22-17.2,2.9,8h-2.9l-1.66,5h6.36l1.52,4.22-6.17,9.91,15.84-9.91Z"/></g></g></svg>